# xmcd CD database file
#
# Track frame offsets:
#	150
#	1457
#	17999
#	31710
#	45523
#	66647
#	84038
#	102364
#	121540
#	144081
#	161254
#	178990
#	198765
#	219524
#	244426
#
# Disc length: 3309 seconds
#
# Revision: 7
# Processed by: cddbd v1.5.2PL0 Copyright (c) Steve Scherf et al.
# Submitted via: CDex 1.51
#
DISCID=bc0ceb0f
DTITLE=Jonny Lang - Turn Around
DYEAR=2006
DGENRE=Blues
TTITLE0=Intro
TTITLE1=Bump In The Road
TTITLE2=One Person At A Time
TTITLE3=Other Side Of The Fence
TTITLE4=Turn Around
TTITLE5=My Love Remains
TTITLE6=Thankful
TTITLE7=Only A Man
TTITLE8=Don't Stop (For Anything)
TTITLE9=Anything's Possible
TTITLE10=Last Goodbye
TTITLE11=On My Feet Again
TTITLE12=That Great Day
TTITLE13=It's Not Over
TTITLE14=Outro
EXTD=YEAR: 2006
EXTT0=
EXTT1=
EXTT2=
EXTT3=
EXTT4=
EXTT5=
EXTT6=
EXTT7=
EXTT8=
EXTT9=
EXTT10=
EXTT11=
EXTT12=
EXTT13=
EXTT14=
PLAYORDER=
